<!-- Created with Inkscape (http://www.inkscape.org/) -->
<svg id="svg2" width="4e3" height="3036" version="1.1" viewBox="0 0 4e3 3036" xmlns="http://www.w3.org/2000/svg" xmlns:cc="http://creativecommons.org/ns#" xmlns:dc="http://purl.org/dc/elements/1.1/" xmlns:rdf="http://www.w3.org/1999/02/22-rdf-syntax-ns#">
  <metadata id="metadata8">
    <rdf:RDF>
      <cc:Work rdf:about="">
        <dc:format>image/svg+xml</dc:format>
        <dc:type rdf:resource="http://purl.org/dc/dcmitype/StillImage"/>
        <dc:title/>
      </cc:Work>
    </rdf:RDF>
  </metadata>
  <path id="finger-button" d="m2178 2882.5c-59.764-13.062-132.93-9.5148-188.67-30.095-38.812-23.935-79.612-13.71-118.12-38.176-61.853-1.3068-118.13-54.777-157.07-95.837 31.667-46.485 86.843 86.935 153.62 66.514 74.584 23.995 151.24 43.111 228.75 56.439 115.7 16.324 233.79 3.4853 347.61-10.503 72.761 0.3367 141.56-42.494 193.38-84.919 8.9345-106.8 13.121-157.74 4.4502-261.73-31.93-17.703-73.557 42.205-113.99 31.082-58.95 16.665-123.1 21.027-186.99 18.057-75.364-0.3426-160.85 2.2556-231.96-0.946-62.745-4.1357-123.95-13.479-182.72-35.288-51.802 22.795-137.54-101.92-139.58-41.225-16.729 66.151 12.2 169.66-1.2417 239.09-4.8203 65.507-61.464 31.98-28.214-24.926 3.1616-72.368-12.518-183.42-1.4582-256.35-44.576-80 52.935-103.45 107.17-123.54 60.419-24.998 136.21-40.906 202.68-63.033 123.05-28.13 256.52-35.674 377.68 8.8545 64.336 8.6924 118.22 46.851 180.68 61.321 49.569 34.392 96.457 89.895 64.688 153.03 3.8901 63.112-11.001 107.82-7.9028 164.89 4.3131 54.484-15.525 104.79-14.883 160.93-38.109 39.506-97.926 65.737-153.25 79.791-74.288 10.25-148.4 15.734-220.04 24.88-37.718-2.9171-76.639 0.6931-114.63 1.6849zm166-378.88c92.438-8.5472 196.09-7.4365 274.13-63.922 76.136-39.49 8.3027-113.92-50.569-128.68-45.115-16.014-95.32-29.845-135.2-51.093-93.065-20.892-191.41-39.15-287.81-15.327-56.359 15.449-112.44 25.547-165.64 44.361-61.313 16.388-139.88 35.988-181.8 84.34 32.828 93.996 149.82 99.676 232.87 117.9 104.19 13.01 208.99 9.6776 314 12.426zm262.02 260.37c4.6245-6.7389 3.8697 4.427 0 0zm-389.35-624.25c-64.662-16.871-139.83-14.82-202.45-45.722-41.055-12.936-74.134-47.845-105.45-73.417-21.475-26.28-40.273-79.324-52.748-107.49 9.7673-38.306-11.734-66.703-18.588-104.47 31.205-36.312-49.61-113.09-10.097-110.8 27.716 29.791 55.137 75.116 60.03 121.82 5.4981 81.2 19.844 173.04 96.994 217.64 53.053 58.07 140.63 54.309 211.64 74.718 54.455-7.4635 151.36 17.783 165.68-59.228-4.8045-55.082-1.0377-111.17-16.207-158.23-3.6416-32.606-15.658-66.657-25.469-93.488-18.08 5.1645-28.557 62.584-47 85.895-21.134 48.24-22.53 107.26-14.587 156.83 23.724 79.731-62.17 33.716-28.301-14.169-10.473-7.4947-21.67-90.048 7.123-118.97 3.2685-44.052 30.366-79.69 49.36-117.67 45.378-21.938-24.746-62.096-15.484-97.11 4.0234-69.043-51.519-93.093-110.47-44.804-53.955 26.861-126.98-11.673-27.536-11.115 39.523-18.903 116.42-27.342 109.44-86.267-14.572-54.013-20.573-112.56-28.76-167.55-33.355-45.109-23.481-115.25-39.307-168.3 5.7039-41.228-46.497-45.368-31.002-79.776-10.732-58.305-40.313-114.45-41.406-168.35 32.565-27.848 6.3636-83.132 36.933-97.993-11.661-12.868-31.718-83.542-38.393-119.67-23.232-45.296-34.795-101.55-50.274-150.04 5.0406-40.612-25.266-44.075-33.156-95.115 1.8078-32.612-27.597-62.775-28.836-87.201-12.008-39.968-42.234-85.674-50.621-125.51-17.185-30.7-52.378-68.915-62.22-112.94-13.396-26.027-2.6557-26.515 27.114-11.383 9.9598 34.979 47.28 66.308 47.384 98.094-1.2268 12.38 40.022 65.705 42.667 56-6.2429 4.9654 10.654 60.701 24.667 84.463 21.046 22.404 2.7877 45.019 31.244 72.204-21.326 51.785 50.978 75.317 32.829 118.12 7.0731 20.701 31.399 52.272 33.932 77.323-4.1679 21.238 7.6435 42.457 16.568 67.89 16.691 46.206 11.861 85.645 22.001 122.71-18.555 43.867-29.845 84.199-2.1967 128.81 37.448 42.802 24.45 96.369 36.464 147.15 36.807 73.462 27.37 162.04 57.327 238.02 13.04 69.433 22.738 142.92 35.637 210 1.1745 43.919 19.427 90.778 28.58 134.88 28.69 53.533 58.446 106.13 65.646 166.02 20.268 53.248 9.7276 89.599 16.699 144.32 1.2161 63.906-54.394 92.17-110.61 99.924-22.273-1.3706-43.745 0.4829-64.785 3.9419zm142.39-175.78c-3.6925-9.3294-0.2494 11.408 0 0zm-53.719-166.67c-5.2045-4.8708-5.204 4.871 0 0zm-5.3333-2.7777c-5.7445-9.1729-8.5177 7.3132 0 0zm-26.184-89.889c-3.1648-6.996-1.1538 7.0428 0 0zm-113.09-633.2c-4.9261-14.51-19.433 8.2059 0 0zm-110.06-582.95c-4.9039-4.8595-1.5988 8.6533 0 0zm-107.29-212.37c-12.49-1.473 2.9887 5.847 0 0zm-104.59 1416.4c-52.214-20.577-37.419-73.201-68.115-65.222-8.0046-21.488-23.617-76.258-32.641-59.865-46.57-47.236-43.17-122.19-83.015-175.9 1.2932-54.785-47.807-104.67-22.344-158.98-12.481-47.64 7.8268-89.782 18-135.88 1.9159-55.043 37.255-83.734 61.252-125.76 29.126-76.006-36.137 69.043-7.9191 53.094-18.278 39.552-8.252 116.89-36.97 162.18 18.761 67.62 2.8718 143.53 41.986 203.81-8.2919 52.887 42.233 79.061 46.088 128.92-7.6765 57.788 71.855 178.73 76.449 139.18 0.326 17.399 18.966 33.581 7.2289 34.423zm-151.18-301.72c-6.8611-22.726-7.1333 16.001 0 0zm-39.162-152.69c0.39-8.603-11.379 7.647 0 0zm3.0592-4.154c-8.0715-9.3195 5.5612 14.742 0 0zm175.97 459.6c3.3369-4.1391 4.9484 4.0162 0 0zm140.8-711.16c-20.454-28.958 87.928-67.288 36.648-25.567-4.2148 17.134-28.926 16.674-36.648 25.567zm-294.55-7.4624c-26.953-27.684-41.578-72.135-70.454-100.27 25.057-41.334 17.917-9.2153-12.291-20.095-47.224-19.147-21.162-117.2-15.285-53.08 38.473 7.2254 65.684 53.38 69.564 89.783 19.304 16.962 57.938 79.682 28.465 83.657zm54.286-37.213c-29.661-20.696 22.388-8.9525 0 0zm415.33-11.058c1.6125-4.8749 3.2884 4.7497 0 0zm-266.31-33.085c-15.19-58.828 70.776-54.373 107.75-81.619 93.186 5.9208-104.58 61.824-107.75 81.619zm268.31-70.106c0.6077-3.5801 7.8845 1.195 0 0zm-604.41-42.696c-23.44-40.958-7.5654-32.468-48.486-62.906-43.213-34.553-69.92-72.526-116.44-102.63-30.317-29.133-49.033-63.378-81.65-87.529-4.8419-43.183-35.648-84.689-49.055-129.05-7.7944-46.164 8.4071-62.918-3.9626-110.29 34.005-45.258 20.684-51.694 31.232 4.9603 22.67 33.474-26.91 70.194 3.8038 80.874 13.672 32.629 18.635 74.843 38.699 104.57-2.4182 37.249 57.834 95.831 52.38 75.994 2.0672 8.9999 34.885 45.261 42.905 51.292 31.696-2.0967 41.986 65.706 50.368 46.644 28.286 27.473 96.065 118.64 85.505 92.108 23.464 10.219 29.722 41.403-5.2986 35.968zm-31.613-73.114c-3.3243-4.9003-1.0493 9.64 0 0zm-223.07-292.39c-6.0127-15.657-11.675 15.951 0 0zm1649.8 200.8c-16.001-8.2543 14.896-2.692 0 0zm-1629.9-161.33c-1.4982-5.1472 5.1696 0.83778 0 0zm-55.056-223.09c-4.3302-20.682 21.772 5.8747 0 0zm4.5906-31.186c-0.4377-8.6057 7.177 2.1211 0 0zm591.27-43.579c-23.443-46.254 50.443-1.9353 0 0zm-3.3435-10.901c3.1648-6.996 1.1539 7.0428 0 0z" stroke-width="1.3333"/>
  <path id="fill2" d="m2144.5 2845.7c-4.0693-0.4655-16.911-1.855-28.538-3.0879-44.865-4.7575-149.51-28.443-214.56-48.565-22.152-6.8517-31.554-8.7575-42.014-8.5163-24.12 0.5563-41.384-8.3417-74.522-38.409l-16.43-14.908 5.3368-4.198c2.9352-2.3088 6.294-6.6889 7.4641-9.7335 8.4075-21.878 10.263-74.768 4.9411-140.83-3.9009-48.417-3.9164-90.039-0.042-113.67 3.5772-21.823 3.9849-22.674 10.856-22.674 7.4423 0 14.973 4.2742 46.891 26.614 39.07 27.346 48 31.451 69.145 31.785 12.826 0.2024 22.824 2.0819 41.389 7.7805 27.462 8.4296 66.244 16.421 106.84 22.015 24.284 3.3465 46.331 3.753 203.74 3.7562 185.7 0 189.96-0.1768 233.59-9.9247 10.464-2.3378 27.197-4.9253 37.184-5.75 19.13-1.5797 26.308-4.3986 65.736-25.817 16.516-8.972 32.562-12.004 37.484-7.0842 7.1722 7.1692 7.9685 142.05 1.2788 216.64-1.7207 19.184-3.1494 36.964-3.1748 39.512-0.06 6.0334-25.004 25.873-27.485 21.86-1.156-1.8706-2.0469-1.9558-3.0738-0.2943-0.7952 1.2868-0.9145 3.1995-0.2649 4.2504 1.3109 2.1211-24.601 19.32-48.089 31.918-32.002 17.166-66.986 28.039-98.703 30.678-8.7199 0.7256-32.026 3.1299-51.791 5.3431-89.63 10.036-103.89 10.953-179.68 11.554-41.856 0.3321-79.43 0.2229-83.5-0.2426z" fill="#a00"/>
  <path id="fill1" d="m2192 2500.2c-101.48-2.202-138.4-5.4563-203.47-17.937-72.88-13.979-106.43-24.487-135.01-42.287-19.106-11.9-40.068-34.108-48.838-51.743l-6.8111-13.694 13.375-12.683c24.829-23.545 62.206-41.386 124.84-59.589 22.161-6.4406 50.757-14.965 63.546-18.942 32.464-10.097 163.24-42.211 184.97-45.421 26.361-3.8948 96.775-3.2613 130.01 1.1698 51.629 6.8843 112.3 19.997 129.84 28.061 21.338 9.8115 40.847 17.073 96.174 35.799 25.482 8.6242 51.641 18.689 58.133 22.366 6.4916 3.6773 18.516 13.407 26.72 21.621 26.91 26.943 32.412 51.496 16.309 72.776-6.5976 8.7185-41.228 31.686-62.816 41.66-44 20.329-85.88 28.96-178.74 36.834-52.57 4.4575-82.245 4.744-208.22 2.0105z" fill="#a00"/>
</svg>
