<!-- Created with Inkscape (http://www.inkscape.org/) -->
<svg id="svg2" width="4e3" height="3036" version="1.1" viewBox="0 0 4e3 3036" xmlns="http://www.w3.org/2000/svg" xmlns:cc="http://creativecommons.org/ns#" xmlns:dc="http://purl.org/dc/elements/1.1/" xmlns:rdf="http://www.w3.org/1999/02/22-rdf-syntax-ns#">
  <metadata id="metadata8">
    <rdf:RDF>
      <cc:Work rdf:about="">
        <dc:format>image/svg+xml</dc:format>
        <dc:type rdf:resource="http://purl.org/dc/dcmitype/StillImage"/>
        <dc:title/>
      </cc:Work>
    </rdf:RDF>
  </metadata>
  <path id="fill2" d="m2144.5 2845.7c-4.0693-0.4655-16.911-1.855-28.538-3.0879-44.865-4.7575-149.51-28.443-214.56-48.565-22.152-6.8517-31.554-8.7575-42.014-8.5163-24.12 0.5563-41.384-8.3417-74.522-38.409l-16.43-14.908 5.3368-4.198c2.9352-2.3088 6.294-6.6889 7.4641-9.7335 8.4075-21.878 10.263 61.232 4.9411-4.8261-3.9009-48.417-3.9164-90.039-0.042-113.67 3.5772-21.823 3.9849-22.674 10.856-22.674 7.4423 0 14.973 4.2742 46.891 26.614 39.07 27.346 48 31.451 69.145 31.785 12.826 0.2024 22.824 2.0819 41.389 7.7805 27.462 8.4296 66.244 16.421 106.84 22.015 24.284 3.3465 46.331 3.753 203.74 3.7562 185.7 0 189.96-0.1768 233.59-9.9247 10.464-2.3378 27.197-4.9253 37.184-5.75 19.13-1.5797 26.308-4.3986 65.736-25.817 16.516-8.972 32.562-12.004 37.484-7.0842 7.1722 7.1692 7.9685 6.0542 1.2788 80.636-1.7207 19.184-3.1494 36.964-3.1748 39.512-0.06 6.0334-25.004 25.873-27.485 21.86-1.156-1.8706-2.0469-1.9558-3.0738-0.2943-0.7952 1.2868-0.9145 3.1995-0.2649 4.2504 1.3109 2.1211-24.601 19.32-48.089 31.918-32.002 17.166-66.986 28.039-98.703 30.678-8.7199 0.7256-32.026 3.1299-51.791 5.3431-89.63 10.036-103.89 10.953-179.68 11.554-41.856 0.3321-79.43 0.2229-83.5-0.2426z" fill="#a00"/>
  <g id="finger-button" stroke-width="1.3333">
    <path id="finger-button-1" d="m1848.2 599.91c-5.9395-0.10453-9.3826 5.0923-1.3242 20.992 33.103-1.27 12.663-20.793 1.3242-20.992zm26.713 23.938c-6.8295 0.2442-6.9317 6.8033 0.6036 21.443 9.8427 44.022 45.036 82.237 62.221 112.94 8.3869 39.84 38.613 85.546 50.621 125.51 1.2387 24.427 30.644 54.589 28.836 87.201 7.8894 51.04 38.197 54.503 33.156 95.115 15.479 48.491 27.041 104.74 50.274 150.04 6.6752 36.129 26.733 106.8 38.394 119.67-30.57 14.86-4.369 70.144-36.934 97.992 1.0934 53.906 30.674 110.05 41.406 168.35-15.495 34.408 36.706 38.547 31.002 79.775 15.826 53.05 5.9515 123.19 39.307 168.3 56.845 281.78 94.71 195.75 31.715-5.4922-29.958-75.984-20.519-164.56-57.326-238.02-12.014-50.781 0.9831-104.35-36.465-147.15-27.648-44.61-16.358-84.942 2.1972-128.81-3.8137-13.94-5.5093-28.218-7.0292-43.064 3.7894 0.237 1.5759-1.6902-0.1543-1.5098-2.4547-24.191-4.6134-49.887-14.816-78.133-8.9241-25.433-20.736-46.653-16.568-67.891-2.5324-25.052-26.858-56.623-33.932-77.324 18.149-42.803-54.156-66.334-32.83-118.12-28.456-27.184-10.196-49.799-31.242-72.203-13.364-22.662-29.351-74.406-25.387-83.455-6.1039 3.2551-43.11-45.271-41.947-57.008-0.1038-31.786-37.423-63.115-47.383-98.094-13.024-6.6202-22.407-10.25-27.719-10.061zm117.05 165.16c0.3346-0.17847 0.5813-0.50337 0.7187-1.0078-0.2889 0.22982-0.5263 0.56867-0.7187 1.0078zm-735.32-127.92c-0.6426 0.0778-1.1563 0.9683-1.0332 3.3887 5.1585 1.5246 2.6754-3.5875 1.0332-3.3887zm-3.7969 26.562c-1.8545 0.11595-3.044 2.1949-1.8261 8.0117 15.649 4.2224 6.5655-8.3081 1.8261-8.0117zm12.916 28.982c-2.2389 0.18442-7.4098 13.107-24.412 35.736 12.37 47.375-3.8315 64.129 3.9629 110.29 13.406 44.361 44.213 85.868 49.055 129.05 32.616 24.151 51.334 58.396 81.65 87.529 46.52 30.102 73.226 68.074 116.44 102.63 40.921 30.438 25.046 21.948 48.486 62.906 35.02 5.4349 28.763-25.748 5.2988-35.967 6.0539 15.214-13.773-8.4322-37.012-36.412-0.8398 6.1925-2.254-0.4875-1.3457-1.6172-16.937-20.397-35.395-42.665-47.148-54.08-8.3822 19.062-18.671-48.739-50.367-46.643-8.0193-6.031-40.837-42.291-42.904-51.291 5.454 19.837-54.797-38.747-52.379-75.996-20.064-29.724-25.027-71.938-38.699-104.57-30.714-10.679 18.865-47.399-3.8046-80.873-5.2743-28.327-4.5814-40.882-6.8204-40.697zm242.12 454.15c0.4555 0.5485 0.8928 1.0719 1.3457 1.6172 0.033-0.2462 0.068-0.4462 0.1-0.7344-0.7246-1.0681-1.1821-1.2102-1.4453-0.8828zm432.05-430.83c0.7779-0.0478 1.9017-5.4e-4 3.4629 0.18359 2.6151 5.1161-8.9082 0.15075-3.4629-0.18359zm-657.39 134.84c1.1039-0.10588 2.4015 1.0575 3.7168 4.4824-9.1208 12.462-7.6593-4.1043-3.7168-4.4824zm23.908 41.848c-0.5163-0.0178-0.8451 0.50477-0.377 2.1133 3.5541 0.57597 1.5128-2.0741 0.377-2.1133zm742.5 34.775c-2.1774-0.091 0.3854 8.3891 1.7344 1.0879-0.7662-0.7593-1.3311-1.071-1.7344-1.0879zm-479.87 292.61c-7.6497 0.8665-13.687 60.114 21.904 74.545 30.208 10.88 37.348-21.238 12.291 20.096 28.876 28.13 43.502 72.581 70.455 100.27 29.472-3.9751-9.1632-66.696-28.467-83.658-3.8806-36.403-31.09-82.558-69.562-89.783-1.3774-15.028-3.8642-21.146-6.2558-21.461-0.1221-0.016-0.2438-0.018-0.3652 0zm415.71 31.932c-36.972 27.245-122.94 22.791-107.75 81.619 3.1711-19.795 200.93-75.698 107.75-81.619zm159.66 113.3c-0.069-0.02-0.1407-0.021-0.2149 0-0.2736 0.085-0.5785 0.4883-0.8808 1.4023 2.5048 3.6179 2.1295-1.103 1.0957-1.4043zm-422.59 0.9395c-4.4517 0.062-5.8877 3.1159 6.1621 11.523 13.293-5.3155 0.3442-11.614-6.1621-11.523zm293.18 12.242c-13.981-0.2899-60.812 24.048-46.75 43.957 7.7225-8.8938 32.432-8.4344 36.646-25.568 16.025-13.038 16.458-18.257 10.104-18.389zm-295.52 10.291c-0.8321 0.3029-7.1977 14.83-12.984 31.143 1.8492-2.9324 3.6619-5.9124 5.4082-8.9708 5.9162-15.439 7.9369-21.757 7.6387-22.156-0.015-0.02-0.036-0.025-0.062-0.016zm-12.984 31.143c-23.562 37.363-54.069 65.752-55.846 116.79-10.173 46.095-30.481 88.239-18 135.88-25.463 54.312 23.639 104.2 22.346 158.98 39.845 53.709 36.444 128.66 83.014 175.9 9.0241-16.393 24.636 38.377 32.641 59.865 30.696-7.9789 15.902 44.646 68.115 65.223 11.738-0.8417-6.9025-17.023-7.2285-34.422-4.5936 39.55-84.126-81.39-76.449-139.18-3.8556-49.862-54.38-76.037-46.088-128.92-39.114-60.28-23.226-136.19-41.986-203.81 28.718-45.294 18.692-122.63 36.971-162.18-13.186 7.4528-5.9576-20.248 2.5117-44.123zm449.4 86.617c1.7491 0.039 3.581 1.3413 4.8125 4.9688-14.574 6.1544-10.06-5.086-4.8125-4.9688zm-506.92 165.26c0.04-0.012 0.09-0.011 0.1504 0.01 0.3574 0.1016 1.0885 0.7431 2.3496 2.1992 4.5457 12.05-3.7328-1.8249-2.5-2.205zm-1.6777 3.7695c0.7088 0.014 1.2045 0.706 1.1192 2.5879-8.8901 5.9742-3.6506-2.6368-1.1192-2.5879zm36.553 147.93c0.8737 0.071 2.1205 2.0212 3.7286 7.3477-5.4615 12.251-6.5826-7.5789-3.7286-7.3477zm145.62 308.91c-0.1137-0.017-0.2353-0.018-0.3632 0-0.4725 0.073-1.0384 0.4153-1.6641 1.1914 3.7693 3.0591 3.7336-0.9415 2.0273-1.1934zm181.82 219.23c-48.019 10.887-95.906 26.712-148.34 48.588-54.238 20.094-151.75 43.539-107.17 123.54-11.06 72.932 4.6206 49.986 1.459 122.35-11.009 18.84-12.159 35.113-8.6036 46.082-13.403-9.4162-25.016-11.662-34.512 2.2774 38.94 41.06 95.213 94.529 157.07 95.836 38.511 24.466 79.311 14.241 118.12 38.176 55.742 20.58 128.9 17.033 188.67 30.096 37.99-0.9918 76.91-4.6026 114.63-1.6855 71.645-9.1465 145.75-14.628 220.04-24.879 55.325-14.054 115.14-40.286 153.25-79.791-0.6414-56.143 19.196-106.45 14.883-160.94-3.0983-57.079 11.792 32.217 7.9024-30.894 31.769-63.138-15.119-118.64-64.688-153.03-34.147-8.4079-63.552-16.886-96.553-24.996 4.155 6.5704 0.5097 14.941 0.6429 22.84 13.317 4.8964 26.48 10.189 39.457 15.893 58.872 14.76 126.7 89.194 50.568 128.68-78.046 56.486-181.7 55.375-274.13 63.922-105.01-2.7489-209.81 0.5838-314-12.426-83.052-18.22-200.05-23.901-232.88-117.9 41.914-48.352 120.48-67.951 181.8-84.34 16.096-5.4497 32.741-10.414 49.842-14.871-0.072-0.066-0.1464-0.1282-0.2168-0.1954-7.9588-9.3832-13.661-21.569-17.231-32.342zm-213.98 197.49c24.857 0.7102 87.683 76.218 128.96 58.053 58.77 21.809 119.97 31.151 182.72 35.287 71.107 3.2016 156.59 0.6027 231.96 0.9453 63.889 2.9697 128.04-1.3915 186.99-18.057 40.437 11.123 82.064-48.785 113.99-31.082 8.671 103.99 4.4853 20.932-4.4492 127.73-51.826 42.425-120.62 85.255-193.38 84.918-113.82 13.988-231.91 26.828-347.61 10.504-77.516-13.329-154.17-32.444-228.75-56.439-38.498 11.774-73.128-27.562-101.63-54.102 8.7577-1.0324 17.568-11.711 19.344-35.846 13.442-69.427-15.487-38.937 1.2421-105.09 0.416-12.329 4.2851-17.009 10.621-16.828zm811.18 188.73c-0.5191-0.03-1.338 0.536-2.4941 2.2207 2.9023 3.3203 4.0514-2.1308 2.4941-2.2207z"/>
    <path id="finger-button-2" d="m2420.6 2539.7c-66.533 6.2618-136.47 33.9-205.88 26.276-43.004 1.8854-86.027-19.604-124.2-32.922-29.168-17.351-64.975-60.766-86.332-82.97-3.9233-39.337-33.84-58.667-53.198-91.812 16.904-44.795-133.13-161.05-95.215-172.41 36.234 18.515 125.34 123.48 145.91 165.69 32.939 74.423 77.831 155.82 165.58 171.34 69.714 36.423 150.73 2.9346 224.43-2.1741 48.619-25.638 148.31-35.056 135.43-112.32-23.354-50.117-38.997-104.11-69.348-143.14-14.574-29.394-37.512-57.282-55.908-79.139-15.224 11.037-5.4299 68.577-14.788 96.79-3.3602 52.558 15.515 108.5 39.934 152.37 49.562 66.809-46.89 52.946-31.44-3.6351-12.404-3.461-51.162-77.206-33.995-114.23-11.995-42.514 1.2795-85.27 6.1362-127.46 35.138-36.135-44.492-49.888-47.764-85.957-19.833-66.256-80.252-69.858-119.13-4.3191-41.514 43.695-123.31 32.461-29.677-1.0269 30.675-31.281 100.04-65.51 73.334-118.5 20.528 1.5442 36.585 2.1273 48.907 21.53 16.125 40.868 49.303 78.659 72.988 116.97 45.269 40.492 91.221 79.744 118.47 133.56 37.258 43.105 39.786 80.869 65.052 129.9 23 59.636-19.59 105.22-69.764 131.73-21.399 6.33-40.942 15.416-59.529 25.862zm73.679-213.88c-6.6607-7.5039 3.6673 10.805 0 0zm-107.48-138.24c-6.5566-2.797-3.2242 6.3571 0 0zm-5.9617-0.7862c-8.5354-6.6549-5.5026 9.7855 0 0zm-55.349-75.512c-5.3668-5.4918 1.3248 7.0126 0 0zm-471.06 70.469c1.7201-5.0308 6.0236 2.0815 0 0z"/>
  </g>
  <path id="path929" d="m2285.6 2636.2c-20.142-0.19-64.536-1.0497-98.654-1.9103-101.72-2.566-134.72-5.5661-199.23-18.111-69.195-13.456-93.223-20.308-120.9-34.474-31.619-16.186-56.341-41.586-66.585-68.409l-2.5256-6.6132 9.643-8.8757c28.489-26.222 69.602-45.73 134.46-63.798 30.612-8.5283 46.668-13.158 49.809-14.364 2.5333-0.9721 7.9209 10.854 10.461 22.963 1.6358 7.7988 3.0177 9.6795 22.116 30.099 25.114 26.851 44.265 45.438 55.342 53.712 8.5712 6.4019 35.527 17.492 70.842 29.145 23.582 7.7813 35.515 9.901 64.837 11.517 40.431 2.2286 65.309-0.4542 133.17-14.361 18.498-3.7907 42.353-8.1762 53.013-9.7455 17.667-2.601 20.839-3.5732 35.874-10.996 9.0715-4.4783 23.6-10.754 32.286-13.947 21.146-7.7728 38.889-19.499 56.829-37.559 11.687-11.765 15.5-16.792 20.704-27.294l6.3787-12.873 14.423 5.0718c20.578 7.2362 33.918 14.283 47.761 25.229 25.878 20.463 38.962 45.073 34.751 65.36-2.8548 13.752-10.701 22.989-30.694 36.136-46.308 30.45-84.534 43.963-150.77 53.299-26.563 3.744-124.29 11.938-137 11.488-5.3438-0.1895-26.196-0.5-46.338-0.69z" fill="#a00"/>
</svg>
