<!-- Created with Inkscape (http://www.inkscape.org/) -->
<svg id="svg893" width="4e3" height="2116.7" version="1.1" viewBox="0 0 4e3 2116.7" xmlns="http://www.w3.org/2000/svg" xmlns:cc="http://creativecommons.org/ns#" xmlns:dc="http://purl.org/dc/elements/1.1/" xmlns:rdf="http://www.w3.org/1999/02/22-rdf-syntax-ns#">
  <metadata id="metadata899">
    <rdf:RDF>
      <cc:Work rdf:about="">
        <dc:format>image/svg+xml</dc:format>
        <dc:type rdf:resource="http://purl.org/dc/dcmitype/StillImage"/>
        <dc:title/>
      </cc:Work>
    </rdf:RDF>
  </metadata>
  <g id="g1122" transform="translate(1100.7 -1883.3)">
    <path id="cup" d="m831.94 4e3c-101.34-10.775-206.22-18.927-307.03-35.903-82.533-5.8456-157.67-39.77-236.46-62.769-59.384-33.856-131.45-49.458-180.5-98.671-50.535-28.009-85.469-75.88-98.412-131-24.851-70.569 1.9569-137.16 45.074-191.66 34.62-46.796 71.153-91.711 125.73-118.68 57.95-37.685 124.94-61.031 190.89-82.182-21.96-56.197-57.706-113.44-87.954-169.4-27.762-57.285-53.431-119.61-63.574-182.34-7.0514-79.119-1.9506-162.97 33.481-234.77 34.11-58.094 91.172-99.105 146.24-136.66 52.501-31.308 101.86-32.967 152.54-62.755 84.426-35.755 167.39-55.981 261.31-55.832 120.82-9.0878 242.29-12.558 363.24-4.4043 43.591 13.175 86.874 28.551 130.76 43.045 56.584 18.088 110.42 41.586 158.38 80.959 22.201 34 63.297 47.701 84.601 80.477 33.948 33.174 46.391 85.251 75.681 122.78 48.034 41.397-29.302 145.28 50 143.18 58.118 16.132 123.41 59.204 122.67 125.89-13.396 55.824-38.709 108.76-93.072 135.68-38.156 34.625-92.976 24.05-138.51 41.796-52.655 3.4172-109.52 57.66-109.44 105.22 28.514 14.706 60.599 26.678 88.338 41.106 48.457 18.851 63.58 74.581 97.358 112.21 24.124 40.164 51.637 91.91 41.316 142 11.821 66.851-43.234 103.23-72.08 155.5-43.677 38.979-87.431 79.713-139.92 105-35.668 26.193-89.895 30.546-128 58.816-60.201 23.089-116.11 52.647-182.59 51.826-89.915 16.093-182.28 4.3464-273.41 16.398-18.817 2.1575-38.39-0.9786-56.676 5.1313zm-3.533-36.204c101.91-2.7744 203.97-13.365 306.06-16.072 70.086-9.0227 139.59-26.471 205.48-53.358 56.967-38.015 128.43-47.046 177.85-98.268-48.695-2.1179-101.2 41.151-154.88 44.606-72.947 15.671-146.19 36.062-221.94 39.966-95.288 11.272-192.86 24.601-288.04 12.059-80.586-2.8972-167.4-1.9006-244.77-9.8804-56.826-5.6645-118.9-25.576-176.9-30.924-66.27-26.25-138.91-37.168-201.71-69.536-47.779-10.153-111.61-55.153-116.68-46.606-22.814-29.004-85.392-161.2-58.808-44.748 14.97 44.411 59.595 91.508 98.538 84.955 14.06 55.138 56.807 32.445 78.259 62.565 29.256 2.2197 46.147 15.364 79.11 25.238 13.66 24.015 47.175 17.238 81.742 34.687 55.98 22.652 118.52 28.38 178.35 40.561 85.244 14.79 171.87 22.38 258.33 24.754zm-690.46-202.43c5.5268-7.224 6.016 8.8385 0 0zm-2.5175-6.3142c-1.8839-9.3791 7.665 3.7606 0 0zm-6.4825-6.6854c-5.9584-6.4761 8.585 1.2906 0 0zm643.37 108.32c85.192 3.9848 173.71 3.2231 257.37-5.535 81.301 7.1396 164.06-9.9998 243.88-23.793 105.56-26.194 206.75-69.329 299.63-125.66 62.691-49.595 49.999-152.63 12.052-214.38-26.722-64.646-85.276-104.42-143.41-137.64 1.1811 8.5164-46.001 14.934-59.884 42.321-54.226 37.74-85.334 110.12-152.83 130.65-53.879 23.668-113.85 36.23-167.91 51.877-127.18 19.537-257.68 16.088-384.59-2.3641-72.779-4.8256-115.31-63.329-160.26-112.61-70.49-19.696-73.981-160.18-146.37-141.06-55.515 27.563-120.67 35.35-169.51 76.296-55.291 32.668-100.9 89.025-111.69 152.52-19.897 55.53 24.939 119.66 64.059 158.8 55.329 33.901 111.62 69.616 176.43 77.669 84.632 36.958 175.31 32.207 260.67 65.629 60.34 2.2707 121.98 12.28 182.37 7.2688zm420.74-20.083c2.0295-6.3192 3.466 4.7737 0 0zm-11.111-5.9414c3.4069-4.7831 3.4063 4.7833 0 0zm-736.15-198.79c-63.363 5.2003-95.015-89.826-50.864-122.59 78.186-20.995-48.904 63.532 36.098 94.652 0.29603 10.96 39.86 23.312 14.767 27.934zm912.8-6.5858c-66.168-13.77 71.224-39.526 42.402-100.28-47.008-102.96 98.984 40.698 5.0181 82.993-10.516 14.438-31.233 16.009-47.42 17.292zm-417.97-63.736c80.683-1.9799 156.48-30.054 235.89-42.829 77.362-17.861 109.22-102.66 167.11-149.71 20.023-42.754 104.78-90.809 88.292-132.38-65.945 43.892-46.142-70.66 21.598-36.98 64.589-11.281 130.62-11.578 187.72-44.804 68.109-25.465 129.23-97.5 105.29-172.85-46.473-68.748-140.18-42.213-196.78 0.3053-37.886 59.788-100-21.54-54.092-40.373 37.931 28.415 114.3-30.794 103.02-81.266 10.864-63.285-48.398-223.19-32.088-21.723-45.752 92.42-157.05 107.28-247.87 128.41-69.652 15.361-137.12 20.671-208.43 19.204-89.293 3.2561-180.78-8.8963-269.15-10.053-108.16-13.962-225.56-9.7988-327.18-58.982-34.73-27.754-84.597-47.261-110.25-79.58-55.426-20.1-107.92-74.153-102.16-131.74-32.22-9.659-43.112 120.79-39.265 166.36-2.9046 59.844 12.121 119 38.341 173.31 23.652 56.197 51.329 112.45 85.092 162.35 26.602 48.631 58.58 89.139 83.227 138.44 35.299 49.246 69.475 99.775 119.95 135.6 32.042 50.799 87.276 60.622 142.24 73.75 68.593 1.5011 138.25-1.7305 206.16 6.6485l3.3333-1.1111zm529.74-415.3c-17.066-35.446 82.425-58.697 0.8549-90.159 31.375-31.736 145.77-50.542 198.74-39.888 34.81 54.052-26.704 120.48-83.825 124.44-37.964 3.7167-78.761 8.8619-115.77 5.6091zm109.32-44.218c50.52 14.186 91.91-93.683 24.005-51.368 0.8397 19.216-99.569 45.548-24.005 51.368zm-530.39-143.45c81.805-10.013 166.75 5.987 245.84-23.578 73.578-4.9337 159.51-20.622 212.19-76.19 75.592-67.566-18.89-120.74-73.173-157.28-57.815-31.855-125.47-42.48-188.29-59.27-82.116-30.83-169.79-45.571-256.2-52.036-76.758 9.5262-152.71 22.527-225.64 43.294-80.47 25.074-167.01 7.2515-246.07 33.388-45.006 33.07-110.26 37.166-144.87 87.385 1.2578 47.738 73.214 57.407 97.093 93.69 64.327 50.825 144.13 76.031 225.14 84.037 85.184 18.391 172.48 8.8663 259.14 21.054 31.72-1.2975 63.402 4.1079 94.832 5.5023zm-691.58-222.48c20.249-31.456 61.518-45.208 90.495-63.564 45.984-18.654 89.901-52.301 143.48-47.869 68.785 0.6868 133.71-8.6741 200.68-30.34 102.65-19.508 207.63-42.429 312.59-17.284 64.18 8.667 125.02 32.101 188.72 46.435 73.57 24.423 154.73 37.652 216.28 87.186 48.106 47.618-1.1708-55.005-26.611-67.599-56.551-65.357-131.33-114.45-215-136.82-54.524-17.757-101.01-50.801-159.31-48.79-133.49 1.4404-267.38-10.644-396.41 31.96-44.385 11.77-113.06 23.247-156.02 39.427-30.69 10.981-71.536 39.379-112.68 48.292-45.069 27.957-87.153 52.434-95.988 114.34-0.6052 5.2559-8.6727 62.434 9.769 44.625zm101.58-70.769c3.4066-4.7832 3.4066 4.7832 0 0z" stroke-width="1.3333"/>
    <path id="coffee" d="m1034.1 2956.2c-3.6149-1.5612-77.475-6.1354-193.75-11.999-86.602-4.3673-95.437-5.233-166.35-16.302-43.325-6.763-64.66-11.892-95.387-22.931-42.997-15.447-94.875-45.115-111.48-63.756-4.2298-4.7472-16.551-14.223-27.38-21.057-51.176-32.298-58.287-38.753-64.184-58.262-4.4506-14.723 27.322-39.414 79.271-61.602 17.202-7.3474 41.9-18.849 54.885-25.559 28.737-14.85 54.707-19.408 136.88-24.019 64.868-3.6404 77.81-5.5594 131.15-19.446 54.079-14.078 101.86-23.731 160.96-32.52 44.751-6.6547 54.156-7.1876 80.481-4.56 70.178 7.0048 140.97 21.266 198.22 39.932 17.214 5.6124 57.818 16.95 90.232 25.194 76.14 19.366 108.87 32.372 148.23 58.896 40.556 27.333 57.923 42.937 68.699 61.726 16.214 28.27 9.6072 52.282-22.434 81.532-43.286 39.514-87.66 56.977-176.08 69.294-22.869 3.1858-48.827 7.83-57.685 10.321-24.895 7.0002-58.681 10.159-128.46 12.011-35.248 0.9354-72.805 2.3069-83.462 3.0478-10.656 0.7409-20.716 0.7678-22.356 0.06z" fill="#483737"/>
    <path id="steam" d="m641.38 2308.2c19.807-41.783 88.482-63.571 71.798-124.66-16.124-51.09-56.369-90.318-78.87-135.12-37.175-43.658-1.9923-110.81 43.638-136.45 40.404-45.793 111.64-33.044 41.722 12.421-73.382 35.906-60.339 111.44-9.8014 156.71 33.387 43.441 70.254 101.11 34.103 160.57-14.952 37.916-59.747 72.99-102.59 66.536zm250.22-3.881c7.6981-55.925 129.99-48.295 89.322-123.85-55.435-28.206-96.108-75.118-100.26-137.81-1.7166-54.802 32.26-163.39 105.23-140.01-19.36 30.105-65.863 74.313-60.013 117.85 0.7549 40.25 10.581 63.56 33.395 92.405 34.932 30.907 105.5 63.876 64.209 121.12-33.344 33.657-85.214 64.244-131.88 70.283zm225.77-34.378c9.0928-41.942 117.02-25.603 91.558-104.45-14.829-70.9-132.71-104.02-72.67-195.78 2.5071-63.967 130.46-100.27 48.668-26.676-30.754 67.429-14.18 119.96 42.472 161.12 34.152 42.127 36.547 101.53-9.2895 137.9-29.101 24.225-62.567 29.649-100.74 27.894z" stroke-width="1.3333"/>
  </g>
</svg>
