<!-- Created with Inkscape (http://www.inkscape.org/) -->
<svg id="svg893" width="4e3" height="2116.7" version="1.1" viewBox="0 0 4e3 2116.7" xmlns="http://www.w3.org/2000/svg" xmlns:cc="http://creativecommons.org/ns#" xmlns:dc="http://purl.org/dc/elements/1.1/" xmlns:rdf="http://www.w3.org/1999/02/22-rdf-syntax-ns#">
  <metadata id="metadata899">
    <rdf:RDF>
      <cc:Work rdf:about="">
        <dc:format>image/svg+xml</dc:format>
        <dc:type rdf:resource="http://purl.org/dc/dcmitype/StillImage"/>
        <dc:title/>
      </cc:Work>
    </rdf:RDF>
  </metadata>
  <g id="g1122" transform="translate(1100.7,-1883.3)">
    <path id="cup" transform="translate(-1100.7,1883.3)" d="m2129.6 567.09c-71.95 0.1778-143.92 3.5944-215.65 8.9902-93.92-0.149-176.88 20.077-261.31 55.832-50.68 29.788-100.04 9.4459-152.54 40.754-55.068 37.555-112.13 78.566-146.24 136.66-35.432 71.8-40.532 155.65-33.48 234.77 10.143 62.73 35.812 125.05 63.574 182.34 30.248 55.96 65.993 113.2 87.953 169.4-65.95 21.151-132.94 44.497-190.89 82.182-54.577 26.969-91.11 71.884-125.73 118.68-43.117 54.5-69.925 121.09-45.074 191.66 12.943 55.12 47.877 102.99 98.412 131 49.05 49.213 121.12 64.814 180.5 98.67 78.79 22.999 153.93 56.924 236.46 62.77 100.81 16.976 205.69 25.127 307.03 35.902l-0.019-0.012c18.286-6.1099 37.859-2.9734 56.676-5.1309 91.13-12.052 183.5-0.3054 273.41-16.398 66.48 0.821 122.39-28.737 182.59-51.826 38.105-28.27 92.332-32.621 128-58.814 52.489-25.287 144.24-66.021 187.92-105 28.846-52.27 83.901-88.649 72.08-155.5 10.321-50.09-17.192-101.84-41.316-142-33.778-37.629-96.9-93.36-145.36-112.21-27.739-14.428-59.824-26.399-88.338-41.105-0.08-47.56 56.784-101.8 109.44-105.22 45.534-17.746 100.35-7.17 138.51-41.795 54.363-26.92 79.676-79.858 93.072-135.68 0.74-66.686-64.552-109.76-122.67-125.89-79.302 2.1-1.966-101.78-50-143.18-29.29-37.529-41.734-89.607-75.682-122.78-21.304-32.776-72.399-38.477-94.6-72.477-47.96-39.373-91.797-48.871-148.38-66.959-43.886-14.494-87.169-29.87-130.76-43.045-49.136-3.3124-98.357-4.7076-147.59-4.5859zm-57.478 28.531c45.768-0.0696 91.703 1.0322 137.59 0.53711 58.3-2.011 104.79 31.034 159.31 48.791 83.67 22.37 158.45 49.463 215 114.82 83.87 42.982 59.922 166.79 23.667 213.5 0.1006 0.75002 0.2132 1.4942 0.3066 2.248-52.68 55.568-138.61 71.258-212.19 76.191-79.09 29.565-164.03 13.563-245.84 23.576h-0.012c-31.43-1.3942-63.112-6.8014-94.832-5.5039-86.66-12.188-173.95-2.6617-259.14-21.053-81.01-8.006-160.81-33.212-225.14-84.037-20.509-31.163-76.483-42.693-92.67-75.572-0.2642-0.0879-0.5291-0.17652-0.789-0.27734-0.6896-0.2562-1.3792-0.5194-2.0411-0.8418-0.6563-0.3062-1.3108-0.61728-1.9335-0.98828-0.2766-0.1615-0.5762-0.27854-0.8575-0.43164-0.7011-0.3291-1.3995-0.66798-2.0566-1.0801-0.701-0.4214-1.395-0.85729-2.0332-1.3711-0.5378-0.4122-1.1388-0.86835-1.5879-1.2812 0.6261 0.4581-0.9017-0.64009-1.0098-0.77539 1.1095 0.7507-1.4529-0.93768-1.4629-1.0469-0.3185-0.2701-0.6348-0.54039-0.955-0.80859-0.4254-0.3391-0.8538-0.67679-1.2715-1.0254-0.6868-0.591-0.901-0.84031-1.3321-1.2324 0.6511 0.53042-1.265-1.0466-1.4589-1.3809-0.1786-0.1921-1.8192-2.067-1.0332-1.2188-0.4611-0.5119-0.9251-1.0233-1.3497-1.5664-0.459-0.6396-0.6629-0.94962-1.0546-1.5156-0.179-0.2398-0.9887-1.3423-1.2989-2.0078-0.3803-0.69178-0.767-1.3812-1.0996-2.0976-0.1814-0.4078-0.2659-0.62746-0.3769-0.81836-0.3714-0.6671-0.7518-1.3297-1.0918-2.0137-0.089-0.1991-0.4324-0.87882-0.3574-0.82032-0.4621-0.825-0.9294-1.651-1.2715-2.5352-0.086-0.2172-0.2264-0.56954-0.3711-0.86914-0.3714-0.74431-0.7306-1.5022-0.9649-2.3047-0.1439-0.3999-0.3303-0.8764-0.4961-1.3125-0.3082-0.8755-0.5541-1.7708-0.7246-2.6836-0.1989-1.1677-0.2831-2.3456-0.209-3.5293 0.01-0.0856 0.023-0.17035 0.033-0.25586-3.3798-11.675 0.4789-39.272 0.8907-42.848 8.835-61.906 50.919-86.383 95.988-114.34 41.144-8.913 81.99-15.31 112.68-26.291 42.96-16.18 111.63-27.658 156.02-39.428 84.676-27.959 171.44-32.365 258.82-32.498zm-672.86 226.78c0.9654 0.0351 1.9521 0.20011 2.959 0.50195-5.76 57.587 46.734 111.64 102.16 131.74 25.653 32.319 75.52 51.826 110.25 79.58 101.62 49.183 219.02 45.02 327.18 58.982 88.37 1.1567 179.86 13.309 269.15 10.053 71.31 1.467 138.78-3.8421 208.43-19.203 90.82-21.13 202.12-35.99 247.87-128.41-16.31-201.47 42.952-41.562 32.088 21.723 11.28 50.472-47.145 93.297-86.636 120.27-48.248 36.777-15.001 47.11 37.708 1.3646 56.6-42.518 150.31-69.053 196.78-0.3047 23.94 75.35-37.182 147.38-105.29 172.85-57.1 33.226-123.13 33.524-187.72 44.805-37.313-13.396-36.053 20.799-12.238 22.157 16.488 41.571-77.63 104.45-97.653 147.2-57.89 47.05-92.345 124.3-169.71 188.9-79.41 12.775-152.61 45.657-233.29 47.637l-3.334 1.1113c-67.91-8.379-137.57-27.147-206.16-28.648-54.964-13.128-110.2-44.951-142.24-95.75-50.475-35.825-84.652-86.354-119.95-135.6-24.647-49.301-56.625-89.808-83.227-138.44-33.763-49.9-61.44-106.15-85.092-162.35-26.22-54.31-41.246-113.47-38.342-173.31-3.7268-44.146 6.3787-167.95 36.307-166.86zm1336.1 307.51c-57.628-0.1523-137.93 17.097-163.42 42.883 311.14-5.565-17.922 54.714-0.8555 90.16 37.009 3.2528 77.806-1.8928 115.77-5.6094 57.121-3.9601 118.63-70.389 83.824-124.44-9.9319-1.9976-22.022-2.9589-35.32-2.9941zm-1251.8 303.51c60.285-0.2429 67.483 124.38 133.57 142.84 44.95 49.281 87.481 129.78 160.26 134.61 126.91 18.452 259.83 66.078 402.59 28.365 54.06-15.647 119.4-16.49 162.89-86.895 57.11-62.074 85.622-105.89 139.85-143.63 13.883-27.387 61.066-33.804 59.885-42.32 58.134 33.22 164.69 72.993 191.41 137.64 37.947 61.75 50.638 164.79-12.053 214.38-92.88 56.331-242.07 99.466-347.63 125.66-79.82 13.793-162.58 30.933-243.88 23.793-83.66 8.7581-172.18 9.5199-257.37 5.5351l0.01-0.012c-60.39 5.0112-122.03-4.9988-182.37-7.2695-85.36-33.422-176.04-28.671-260.67-65.629-64.81-8.053-121.1-43.767-176.43-77.668-39.12-39.14-83.958-103.27-64.061-158.8 10.79-63.495 56.4-119.85 111.69-152.52 48.84-40.946 113.99-48.734 169.51-76.297 4.5229-1.1946 8.7769-1.7644 12.795-1.7812zm1012.9 171.87c-6.1179-0.2766-6.8282 9.8776 5.2911 36.422 28.822 60.754-108.57 86.509-42.4 100.28 16.187-1.283 36.904-2.853 47.42-17.291 69.74-31.391 7.3016-118.62-10.311-119.41zm-981.94 17.395c-4.1863-0.02-10.28 1.0142-18.832 3.3105-44.151 32.764-12.5 127.79 50.863 122.59 25.093-4.622-14.47-16.974-14.766-27.934-75.705-27.716 16.823-97.797-17.266-97.963zm-363.17 137.88c10.542 0.122 46.24 71.532 62.281 91.926 5.07-8.547 68.903 36.452 116.68 46.606 62.8 32.368 135.44 43.287 201.71 69.537 58 5.348 120.07 25.259 176.9 30.924 77.37 7.9798 164.18 6.9837 244.77 9.8809 95.18 12.542 192.75-0.7886 288.04-12.061 75.75-3.904 148.99-24.294 221.94-39.965 53.68-3.455 169.76-67.497 218.46-65.379-49.42 51.222-184.46 81.026-241.43 119.04-65.89 26.887-135.39 44.335-205.48 53.357-102.09 2.707-204.15 13.298-306.06 16.072h-0.01c-86.46-2.374-173.09-9.9639-258.33-24.754-59.83-12.181-122.37-17.909-178.35-40.561-34.567-17.449-68.082-10.672-81.742-34.688-32.963-9.874-49.853-23.018-79.109-25.238-21.452-30.12-64.2-7.4265-78.26-62.564-38.943 6.553-83.567-40.544-98.537-84.955-7.8921-34.572-7.9256-47.229-3.4746-47.178zm77.441 101.9c-0.8107-0.047-0.9518 0.5856 0.9102 2.6094 5.9022 0.8873 0.8735-2.5061-0.9102-2.6094zm7.8789 5.8477c-0.6415-0.048-1.0161 0.8094-0.4863 3.4473 5.5092 2.7029 2.1258-3.3254 0.4863-3.4473zm4.5996 7.8359c-0.6724 0.035-1.532 0.5713-2.5683 1.9258 4.888 7.1813 5.4821-2.0766 2.5683-1.9258zm1043.2 69.842c-0.4192-0.027-1.0009 0.3326-1.7461 1.3789 2.6612 3.737 3.2431-1.284 1.7461-1.3789zm10.566 5.3262c-0.3421 0.064-0.7572 0.6118-1.2012 1.9941 2.7078 3.7295 2.4229-2.2237 1.2012-1.9941z" stroke-width="1.3333"/>
    <path id="coffee" d="m1034.1 2956.2c-3.6149-1.5612-77.475-6.1354-193.75-11.999-86.602-4.3673-95.437-5.233-166.35-16.302-43.325-6.763-64.66-11.892-95.387-22.931-42.997-15.447-94.875-45.115-111.48-63.756-4.2298-4.7472-16.551-14.223-27.38-21.057-51.176-32.298-58.287-38.753-64.184-58.262-4.4506-14.723 27.322-39.414 79.271-61.602 17.202-7.3474 41.9-18.849 54.885-25.559 28.737-14.85 54.707-19.408 136.88-24.019 64.868-3.6404 77.81-5.5594 131.15-19.446 54.079-14.078 101.86-23.731 160.96-32.52 44.751-6.6547 54.156-7.1876 80.481-4.56 70.178 7.0048 140.97 21.266 198.22 39.932 17.214 5.6124 57.818 16.95 90.232 25.194 76.14 19.366 108.87 32.372 148.23 58.896 40.556 27.333 57.923 42.937 68.699 61.726 16.214 28.27 9.6072 52.282-22.434 81.532-43.286 39.514-87.66 56.977-176.08 69.294-22.869 3.1858-48.827 7.83-57.685 10.321-24.895 7.0002-58.681 10.159-128.46 12.011-35.248 0.9354-72.805 2.3069-83.462 3.0478-10.656 0.7409-20.716 0.7678-22.356 0.06z" fill="#483737"/>
    <path id="steam" d="m641.38 2308.2c19.807-41.783 88.482-63.571 71.798-124.66-16.124-51.09-56.369-90.318-78.87-135.12-37.175-43.658-1.9923-110.81 43.638-136.45 40.404-45.793 111.64-33.044 41.722 12.421-73.382 35.906-60.339 111.44-9.8014 156.71 33.387 43.441 70.254 101.11 34.103 160.57-14.952 37.916-59.747 72.99-102.59 66.536zm250.22-3.881c7.6981-55.925 129.99-48.295 89.322-123.85-55.435-28.206-96.108-75.118-100.26-137.81-1.7166-54.802 32.26-163.39 105.23-140.01-19.36 30.105-65.863 74.313-60.013 117.85 0.7549 40.25 10.581 63.56 33.395 92.405 34.932 30.907 105.5 63.876 64.209 121.12-33.344 33.657-85.214 64.244-131.88 70.283zm225.77-0.378c9.0928-41.942 117.02-57.603 91.558-136.45-14.829-70.9-132.71-114.02-72.67-205.78 2.5071-63.967 130.46-100.27 48.668-26.676-30.754 67.429-14.18 119.96 42.472 161.12 34.152 42.127 36.547 133.53-9.2895 169.9-29.101 24.225-62.567 29.649-100.74 27.894z" stroke-width="1.3333"/>
  </g>
</svg>
